<mxfile host="app.diagrams.net" modified="2023-03-28T14:16:27.567Z" agent="Mozilla/5.0 (X11; Linux x86_64; rv:109.0) Gecko/20100101 Firefox/110.0" etag="Z01OM7SSKHDq63gqrnri" version="21.1.1" type="device">
  <diagram name="Page-1" id="QxLGOw9jCo6vru8F1kvH">
    <mxGraphModel dx="686" dy="762" grid="1" gridSize="10" guides="1" tooltips="1" connect="1" arrows="1" fold="1" page="1" pageScale="1" pageWidth="850" pageHeight="1100" math="0" shadow="0">
      <root>
        <mxCell id="0" />
        <mxCell id="1" parent="0" />
        <mxCell id="dAi3CTcD7Bf4IgN65HMk-9" style="edgeStyle=orthogonalEdgeStyle;rounded=0;orthogonalLoop=1;jettySize=auto;html=1;entryX=0.5;entryY=0;entryDx=0;entryDy=0;" edge="1" parent="1" source="dAi3CTcD7Bf4IgN65HMk-1" target="dAi3CTcD7Bf4IgN65HMk-2">
          <mxGeometry relative="1" as="geometry" />
        </mxCell>
        <mxCell id="dAi3CTcD7Bf4IgN65HMk-1" value="Initial" style="ellipse;whiteSpace=wrap;html=1;" vertex="1" parent="1">
          <mxGeometry x="270" y="50" width="140" height="80" as="geometry" />
        </mxCell>
        <mxCell id="dAi3CTcD7Bf4IgN65HMk-10" style="edgeStyle=orthogonalEdgeStyle;rounded=0;orthogonalLoop=1;jettySize=auto;html=1;entryX=0.5;entryY=0;entryDx=0;entryDy=0;" edge="1" parent="1" source="dAi3CTcD7Bf4IgN65HMk-2" target="dAi3CTcD7Bf4IgN65HMk-4">
          <mxGeometry relative="1" as="geometry" />
        </mxCell>
        <mxCell id="dAi3CTcD7Bf4IgN65HMk-30" style="edgeStyle=orthogonalEdgeStyle;rounded=0;orthogonalLoop=1;jettySize=auto;html=1;entryX=0.5;entryY=0;entryDx=0;entryDy=0;" edge="1" parent="1" source="dAi3CTcD7Bf4IgN65HMk-2" target="dAi3CTcD7Bf4IgN65HMk-29">
          <mxGeometry relative="1" as="geometry" />
        </mxCell>
        <mxCell id="dAi3CTcD7Bf4IgN65HMk-2" value="empty" style="ellipse;whiteSpace=wrap;html=1;" vertex="1" parent="1">
          <mxGeometry x="270" y="200" width="140" height="80" as="geometry" />
        </mxCell>
        <mxCell id="dAi3CTcD7Bf4IgN65HMk-11" style="edgeStyle=orthogonalEdgeStyle;rounded=0;orthogonalLoop=1;jettySize=auto;html=1;entryX=0.5;entryY=0;entryDx=0;entryDy=0;" edge="1" parent="1" source="dAi3CTcD7Bf4IgN65HMk-4" target="dAi3CTcD7Bf4IgN65HMk-5">
          <mxGeometry relative="1" as="geometry" />
        </mxCell>
        <mxCell id="dAi3CTcD7Bf4IgN65HMk-12" style="edgeStyle=orthogonalEdgeStyle;rounded=0;orthogonalLoop=1;jettySize=auto;html=1;entryX=0.5;entryY=0;entryDx=0;entryDy=0;" edge="1" parent="1" source="dAi3CTcD7Bf4IgN65HMk-4" target="dAi3CTcD7Bf4IgN65HMk-8">
          <mxGeometry relative="1" as="geometry">
            <Array as="points">
              <mxPoint x="340" y="480" />
              <mxPoint x="550" y="480" />
            </Array>
          </mxGeometry>
        </mxCell>
        <mxCell id="dAi3CTcD7Bf4IgN65HMk-4" value="filled" style="ellipse;whiteSpace=wrap;html=1;" vertex="1" parent="1">
          <mxGeometry x="270" y="360" width="140" height="80" as="geometry" />
        </mxCell>
        <mxCell id="dAi3CTcD7Bf4IgN65HMk-13" style="edgeStyle=orthogonalEdgeStyle;rounded=0;orthogonalLoop=1;jettySize=auto;html=1;entryX=0.5;entryY=0;entryDx=0;entryDy=0;" edge="1" parent="1" source="dAi3CTcD7Bf4IgN65HMk-5" target="dAi3CTcD7Bf4IgN65HMk-6">
          <mxGeometry relative="1" as="geometry" />
        </mxCell>
        <mxCell id="dAi3CTcD7Bf4IgN65HMk-14" style="edgeStyle=orthogonalEdgeStyle;rounded=0;orthogonalLoop=1;jettySize=auto;html=1;entryX=0.5;entryY=0;entryDx=0;entryDy=0;" edge="1" parent="1" source="dAi3CTcD7Bf4IgN65HMk-5" target="dAi3CTcD7Bf4IgN65HMk-7">
          <mxGeometry relative="1" as="geometry">
            <Array as="points">
              <mxPoint x="340" y="640" />
              <mxPoint x="550" y="640" />
            </Array>
          </mxGeometry>
        </mxCell>
        <mxCell id="dAi3CTcD7Bf4IgN65HMk-5" value="filled" style="ellipse;whiteSpace=wrap;html=1;" vertex="1" parent="1">
          <mxGeometry x="270" y="520" width="140" height="80" as="geometry" />
        </mxCell>
        <mxCell id="dAi3CTcD7Bf4IgN65HMk-24" style="edgeStyle=orthogonalEdgeStyle;rounded=0;orthogonalLoop=1;jettySize=auto;html=1;entryX=0.5;entryY=0;entryDx=0;entryDy=0;" edge="1" parent="1" source="dAi3CTcD7Bf4IgN65HMk-6" target="dAi3CTcD7Bf4IgN65HMk-23">
          <mxGeometry relative="1" as="geometry" />
        </mxCell>
        <mxCell id="dAi3CTcD7Bf4IgN65HMk-26" style="edgeStyle=orthogonalEdgeStyle;rounded=0;orthogonalLoop=1;jettySize=auto;html=1;entryX=0.5;entryY=0;entryDx=0;entryDy=0;" edge="1" parent="1" source="dAi3CTcD7Bf4IgN65HMk-6" target="dAi3CTcD7Bf4IgN65HMk-25">
          <mxGeometry relative="1" as="geometry">
            <Array as="points">
              <mxPoint x="340" y="800" />
              <mxPoint x="550" y="800" />
            </Array>
          </mxGeometry>
        </mxCell>
        <mxCell id="dAi3CTcD7Bf4IgN65HMk-6" value="full" style="ellipse;whiteSpace=wrap;html=1;" vertex="1" parent="1">
          <mxGeometry x="270" y="680" width="140" height="80" as="geometry" />
        </mxCell>
        <mxCell id="dAi3CTcD7Bf4IgN65HMk-7" value="filled" style="ellipse;whiteSpace=wrap;html=1;" vertex="1" parent="1">
          <mxGeometry x="480" y="680" width="140" height="80" as="geometry" />
        </mxCell>
        <mxCell id="dAi3CTcD7Bf4IgN65HMk-8" value="empty" style="ellipse;whiteSpace=wrap;html=1;" vertex="1" parent="1">
          <mxGeometry x="480" y="520" width="140" height="80" as="geometry" />
        </mxCell>
        <mxCell id="dAi3CTcD7Bf4IgN65HMk-15" value="init" style="text;html=1;align=center;verticalAlign=middle;resizable=0;points=[];autosize=1;strokeColor=none;fillColor=none;" vertex="1" parent="1">
          <mxGeometry x="340" y="160" width="40" height="30" as="geometry" />
        </mxCell>
        <mxCell id="dAi3CTcD7Bf4IgN65HMk-16" value="enqueue" style="text;html=1;align=center;verticalAlign=middle;resizable=0;points=[];autosize=1;strokeColor=none;fillColor=none;" vertex="1" parent="1">
          <mxGeometry x="330" y="320" width="70" height="30" as="geometry" />
        </mxCell>
        <mxCell id="dAi3CTcD7Bf4IgN65HMk-17" value="enqueue" style="text;html=1;align=center;verticalAlign=middle;resizable=0;points=[];autosize=1;strokeColor=none;fillColor=none;" vertex="1" parent="1">
          <mxGeometry x="335" y="480" width="70" height="30" as="geometry" />
        </mxCell>
        <mxCell id="dAi3CTcD7Bf4IgN65HMk-18" value="dequeue" style="text;html=1;align=center;verticalAlign=middle;resizable=0;points=[];autosize=1;strokeColor=none;fillColor=none;" vertex="1" parent="1">
          <mxGeometry x="550" y="480" width="70" height="30" as="geometry" />
        </mxCell>
        <mxCell id="dAi3CTcD7Bf4IgN65HMk-19" value="enqueue" style="text;html=1;align=center;verticalAlign=middle;resizable=0;points=[];autosize=1;strokeColor=none;fillColor=none;" vertex="1" parent="1">
          <mxGeometry x="340" y="640" width="70" height="30" as="geometry" />
        </mxCell>
        <mxCell id="dAi3CTcD7Bf4IgN65HMk-20" value="dequeue" style="text;html=1;align=center;verticalAlign=middle;resizable=0;points=[];autosize=1;strokeColor=none;fillColor=none;" vertex="1" parent="1">
          <mxGeometry x="550" y="640" width="70" height="30" as="geometry" />
        </mxCell>
        <mxCell id="dAi3CTcD7Bf4IgN65HMk-23" value="full" style="ellipse;whiteSpace=wrap;html=1;" vertex="1" parent="1">
          <mxGeometry x="270" y="840" width="140" height="80" as="geometry" />
        </mxCell>
        <mxCell id="dAi3CTcD7Bf4IgN65HMk-25" value="filled" style="ellipse;whiteSpace=wrap;html=1;" vertex="1" parent="1">
          <mxGeometry x="480" y="840" width="140" height="80" as="geometry" />
        </mxCell>
        <mxCell id="dAi3CTcD7Bf4IgN65HMk-27" value="enqueue" style="text;html=1;align=center;verticalAlign=middle;resizable=0;points=[];autosize=1;strokeColor=none;fillColor=none;" vertex="1" parent="1">
          <mxGeometry x="340" y="800" width="70" height="30" as="geometry" />
        </mxCell>
        <mxCell id="dAi3CTcD7Bf4IgN65HMk-28" value="dequeue" style="text;html=1;align=center;verticalAlign=middle;resizable=0;points=[];autosize=1;strokeColor=none;fillColor=none;" vertex="1" parent="1">
          <mxGeometry x="550" y="800" width="70" height="30" as="geometry" />
        </mxCell>
        <mxCell id="dAi3CTcD7Bf4IgN65HMk-29" value="Error" style="ellipse;whiteSpace=wrap;html=1;" vertex="1" parent="1">
          <mxGeometry x="70" y="360" width="140" height="80" as="geometry" />
        </mxCell>
        <mxCell id="dAi3CTcD7Bf4IgN65HMk-32" value="dequeue" style="text;html=1;align=center;verticalAlign=middle;resizable=0;points=[];autosize=1;strokeColor=none;fillColor=none;" vertex="1" parent="1">
          <mxGeometry x="140" y="320" width="70" height="30" as="geometry" />
        </mxCell>
      </root>
    </mxGraphModel>
  </diagram>
</mxfile>
